<?xml version="1.0" encoding="UTF-8"?>
<svg version="1.1" xmlns="http://www.w3.org/2000/svg" width="128" height="128">
<path d="M0 0 C1.50600517 -0.0076664 1.50600517 -0.0076664 3.04243469 -0.01548767 C6.352651 -0.02935804 9.66265852 -0.02842887 12.97290039 -0.02612305 C15.27926206 -0.0300112 17.58562301 -0.03434612 19.89198303 -0.03910828 C24.72293419 -0.04656487 29.55381226 -0.04628311 34.38476562 -0.04101562 C40.56971385 -0.03522 46.75436271 -0.05215721 52.93926144 -0.0753603 C57.70139815 -0.09010468 62.46346287 -0.09096839 67.22561836 -0.08785057 C69.50573889 -0.08836337 71.78586349 -0.09359325 74.06596184 -0.10366249 C77.25641112 -0.11602372 80.44627851 -0.10923682 83.63671875 -0.09765625 C84.57460236 -0.10529999 85.51248596 -0.11294373 86.47879028 -0.12081909 C93.52795291 -0.06437652 98.46175854 1.00404939 103.77912903 5.99049377 C106.29986524 9.92528323 106.52119706 12.17463881 106.54589844 16.82128906 C106.55626633 17.55219254 106.56663422 18.28309601 106.57731628 19.03614807 C106.60428786 21.43784716 106.59474678 23.83770726 106.58227539 26.23950195 C106.5881886 27.91810105 106.59543712 29.59669593 106.60395813 31.27528381 C106.61582155 34.78823874 106.60915983 38.30055943 106.58984375 41.81347656 C106.56696848 46.30404554 106.59372843 50.7927208 106.63490582 55.28310299 C106.6605458 58.74830362 106.65788712 62.21305491 106.64701271 65.67831612 C106.64553089 67.33324464 106.65315964 68.98820844 106.67026329 70.64304924 C106.79596974 85.16232221 106.79596974 85.16232221 103.21044922 89.71826172 C97.90219482 94.93604494 90.69583315 94.56758182 83.76611328 94.54931641 C82.76210983 94.55442734 81.75810638 94.55953827 80.72367859 94.56480408 C77.41346228 94.57867445 74.10345476 94.57774528 70.79321289 94.57543945 C68.48685123 94.57932761 66.18049027 94.58366253 63.87413025 94.58842468 C59.04317909 94.59588128 54.21230102 94.59559952 49.38134766 94.59033203 C43.19639943 94.58453641 37.01175058 94.60147362 30.82685184 94.6246767 C26.06471513 94.63942109 21.30265041 94.6402848 16.54049492 94.63716698 C14.26037439 94.63767977 11.98024979 94.64290966 9.70015144 94.6529789 C6.50970216 94.66534013 3.31983478 94.65855323 0.12939453 94.64697266 C-0.80848907 94.65461639 -1.74637268 94.66226013 -2.712677 94.6701355 C-9.76183963 94.61369293 -14.69564526 93.54526702 -20.01301575 88.55882263 C-22.53375196 84.62403317 -22.75508378 82.3746776 -22.77978516 77.72802734 C-22.79015305 76.99712387 -22.80052094 76.2662204 -22.811203 75.51316833 C-22.83817458 73.11146924 -22.8286335 70.71160914 -22.81616211 68.30981445 C-22.82207532 66.63121535 -22.82932384 64.95262048 -22.83784485 63.27403259 C-22.84970827 59.76107766 -22.84304655 56.24875697 -22.82373047 52.73583984 C-22.80085519 48.24527087 -22.82761515 43.7565956 -22.86879253 39.26621342 C-22.89443251 35.80101279 -22.89177384 32.3362615 -22.88089943 28.87100029 C-22.87941761 27.21607176 -22.88704636 25.56110797 -22.90415001 23.90626717 C-23.02985645 9.38699419 -23.02985645 9.38699419 -19.44433594 4.83105469 C-14.13608154 -0.38672853 -6.92971986 -0.01826541 0 0 Z " fill="#C5373D" transform="translate(22.116943359375,16.725341796875)"/>
<path d="M0 0 C8.25 0 16.5 0 25 0 C26.32 2.97 27.64 5.94 29 9 C32.4506958 13.05456756 35.38033811 15.67815582 40.734375 16.3359375 C47.23143138 16.42009626 52.81621518 16.28225703 58 12 C60.85291657 8.39541679 62.29946847 4.25132882 64 0 C85.12 0 106.24 0 128 0 C128 20 128 20 122 27 C116.91931029 29.63109316 111.48423404 29.28942183 105.88305664 29.2746582 C104.37705147 29.2823246 104.37705147 29.2823246 102.84062195 29.29014587 C99.53040564 29.30401625 96.22039812 29.30308708 92.91015625 29.30078125 C90.60379459 29.30466941 88.29743363 29.30900433 85.99107361 29.31376648 C81.16012245 29.32122308 76.32924438 29.32094131 71.49829102 29.31567383 C65.31334279 29.3098782 59.12869393 29.32681542 52.9437952 29.3500185 C48.18165849 29.36476288 43.41959377 29.36562659 38.65743828 29.36250877 C36.37731775 29.36302157 34.09719315 29.36825146 31.8170948 29.37832069 C28.62664552 29.39068193 25.43677813 29.38389503 22.24633789 29.37231445 C20.83951248 29.38378006 20.83951248 29.38378006 19.40426636 29.39547729 C12.33179261 29.33884807 7.56143947 28.22882953 2.08203125 23.4609375 C-1.07828601 19.27736565 -0.54310276 14.6378551 -0.3125 9.625 C-0.209375 6.44875 -0.10625 3.2725 0 0 Z " fill="#EDEDED" transform="translate(0,82)"/>
<path d="M0 0 C21.12 0 42.24 0 64 0 C64 11.88 64 23.76 64 36 C42.88 36 21.76 36 0 36 C0 24.12 0 12.24 0 0 Z " fill="#0E4176" transform="translate(64,46)"/>
<path d="M0 0 C8.25 0 16.5 0 25 0 C25 11.88 25 23.76 25 36 C16.75 36 8.5 36 0 36 C0 24.12 0 12.24 0 0 Z " fill="#0F4176" transform="translate(0,46)"/>
<path d="M0 0 C1.9375 0.3125 1.9375 0.3125 4 1 C4.33 1.99 4.66 2.98 5 4 C5.99 4 6.98 4 8 4 C8.99 5.98 9.98 7.96 11 10 C13.27292941 8.98110061 14.83024561 8.19097369 16.5 6.3125 C16.995 5.879375 17.49 5.44625 18 5 C20.09375 5.41796875 20.09375 5.41796875 22 6 C22.02945031 9.31248078 22.04694801 12.62492711 22.0625 15.9375 C22.07087891 16.86369141 22.07925781 17.78988281 22.08789062 18.74414062 C22.10837786 24.58300303 21.75429787 30.20913053 21 36 C18.13275314 35.42655063 17.1385485 35.1385485 15 33 C14.67 33.66 14.34 34.32 14 35 C12.68 34.34 11.36 33.68 10 33 C10.99 30.03 11.98 27.06 13 24 C11.02 24 9.04 24 7 24 C7 26.97 7 29.94 7 33 C7.66 33 8.32 33 9 33 C9.12375 34.051875 9.2475 35.10375 9.375 36.1875 C9.91478818 39.48020789 10.73179598 41.95631034 12 45 C12 45.99 12 46.98 12 48 C9.47524538 49.26237731 7.68799534 49.09856404 4.875 49.0625 C3.96492188 49.05347656 3.05484375 49.04445312 2.1171875 49.03515625 C1.41851562 49.02355469 0.71984375 49.01195312 0 49 C-1.13314263 44.89517207 -0.78328091 42.24049263 0.4375 38.1875 C0.72496094 37.21167969 1.01242188 36.23585937 1.30859375 35.23046875 C1.53675781 34.49441406 1.76492187 33.75835937 2 33 C2.66 33 3.32 33 4 33 C4 29.7 4 26.4 4 23 C2.02 23 0.04 23 -2 23 C-2 22.34 -2 21.68 -2 21 C-0.02 21 1.96 21 4 21 C4 18.03 4 15.06 4 12 C1.69 12 -0.62 12 -3 12 C-2.88608368 14.60508636 -2.75934452 17.20845546 -2.625 19.8125 C-2.5940625 20.55048828 -2.563125 21.28847656 -2.53125 22.04882812 C-2.32653852 25.81893115 -2.13566173 27.79650741 0 31 C0 32.32 0 33.64 0 35 C-3 35 -3 35 -4.6875 33.5 C-5.120625 33.005 -5.55375 32.51 -6 32 C-6.33 33.32 -6.66 34.64 -7 36 C-7.99 36 -8.98 36 -10 36 C-11.13955862 29.67410373 -11.1142637 23.47721662 -11.0625 17.0625 C-11.05798828 15.99708984 -11.05347656 14.93167969 -11.04882812 13.83398438 C-11.03711787 11.22259709 -11.02071724 8.61132876 -11 6 C-9.68 5.67 -8.36 5.34 -7 5 C-6.401875 5.825 -5.80375 6.65 -5.1875 7.5 C-4.465625 8.325 -3.74375 9.15 -3 10 C-2.01 10 -1.02 10 0 10 C0.99 7.36 1.98 4.72 3 2 C2.01 1.67 1.02 1.34 0 1 C0 0.67 0 0.34 0 0 Z " fill="#FDF8F8" transform="translate(39,48)"/>
<path d="M0 0 C0 2.64 0 5.28 0 8 C2.97 8.495 2.97 8.495 6 9 C6.33 8.34 6.66 7.68 7 7 C7 7.99 7 8.98 7 10 C7.99 9.67 8.98 9.34 10 9 C10.66 9.33 11.32 9.66 12 10 C11.34 11.98 10.68 13.96 10 16 C9.34 16 8.68 16 8 16 C7.855625 17.27875 7.71125 18.5575 7.5625 19.875 C7.29357254 22.25692894 7.07773654 23.84452691 6 26 C4.00045254 26.04254356 1.99958364 26.04080783 0 26 C-0.33 25.67 -0.66 25.34 -1 25 C-1.66 25.99 -2.32 26.98 -3 28 C-3.66 26.02 -4.32 24.04 -5 22 C-5.66 22 -6.32 22 -7 22 C-6.34 22.33 -5.68 22.66 -5 23 C-5.33 24.98 -5.66 26.96 -6 29 C-6.33 28.01 -6.66 27.02 -7 26 C-8.65 26 -10.3 26 -12 26 C-13 19.375 -13 19.375 -13 16 C-13.99 16 -14.98 16 -16 16 C-16.33 14.02 -16.66 12.04 -17 10 C-16.01 9.67 -15.02 9.34 -14 9 C-13.34 9.33 -12.68 9.66 -12 10 C-11.67 9.34 -11.34 8.68 -11 8 C-9.35 8.33 -7.7 8.66 -6 9 C-4.5216774 6.04335481 -4.93967217 3.25770263 -5 0 C-6.423125 0.309375 -6.423125 0.309375 -7.875 0.625 C-8.90625 0.74875 -9.9375 0.8725 -11 1 C-11.66 0.34 -12.32 -0.32 -13 -1 C-8.03045858 -2.65651381 -4.73482302 -2.16449052 0 0 Z " fill="#E9B22F" transform="translate(47,27)"/>
<path d="M0 0 C3.3 0 6.6 0 10 0 C10 4.95 10 9.9 10 15 C9.67 14.01 9.34 13.02 9 12 C7.02 12 5.04 12 3 12 C3 14.97 3 17.94 3 21 C3.66 21 4.32 21 5 21 C5.12375 22.051875 5.2475 23.10375 5.375 24.1875 C5.91478818 27.48020789 6.73179598 29.95631034 8 33 C8 33.99 8 34.98 8 36 C5.47524538 37.26237731 3.68799534 37.09856404 0.875 37.0625 C-0.03507812 37.05347656 -0.94515625 37.04445312 -1.8828125 37.03515625 C-2.58148438 37.02355469 -3.28015625 37.01195312 -4 37 C-5.13314263 32.89517207 -4.78328091 30.24049263 -3.5625 26.1875 C-3.27503906 25.21167969 -2.98757812 24.23585938 -2.69140625 23.23046875 C-2.46324219 22.49441406 -2.23507813 21.75835937 -2 21 C-1.34 21 -0.68 21 0 21 C0 17.7 0 14.4 0 11 C-1.98 11 -3.96 11 -6 11 C-6 10.34 -6 9.68 -6 9 C-4.02 9 -2.04 9 0 9 C0 6.03 0 3.06 0 0 Z " fill="#ECE0E1" transform="translate(43,60)"/>
<path d="M0 0 C2.31 0 4.62 0 7 0 C7 2.97 7 5.94 7 9 C5.02 9 3.04 9 1 9 C1 9.66 1 10.32 1 11 C2.98 11 4.96 11 7 11 C7 14.3 7 17.6 7 21 C6.34 21 5.68 21 5 21 C4.34 24.63 3.68 28.26 3 32 C2.34 31.67 1.68 31.34 1 31 C0.67 31.66 0.34 32.32 0 33 C-0.66 33 -1.32 33 -2 33 C-3.97387813 28.23947038 -4.0070238 25.03511899 -3 20 C-2.01 20.33 -1.02 20.66 0 21 C0 21.66 0 22.32 0 23 C0.99 23 1.98 23 3 23 C2.50886719 22.01902344 2.01773438 21.03804687 1.51171875 20.02734375 C-0.29578943 15.80982466 -0.34911529 12.09187203 -0.1875 7.5625 C-0.16719727 6.46518555 -0.16719727 6.46518555 -0.14648438 5.34570312 C-0.11153874 3.56347578 -0.05774805 1.78163427 0 0 Z " fill="#CF573E" transform="translate(36,60)"/>
<path d="M0 0 C0.99 0.33 1.98 0.66 3 1 C3 1.66 3 2.32 3 3 C4.65 2.34 6.3 1.68 8 1 C8 1.66 8 2.32 8 3 C9.32 3.33 10.64 3.66 12 4 C11.34 6.31 10.68 8.62 10 11 C8.00045254 11.04254356 5.99958364 11.04080783 4 11 C3.67 10.67 3.34 10.34 3 10 C2.01 11.485 2.01 11.485 1 13 C0.34 11.02 -0.32 9.04 -1 7 C-1.66 7 -2.32 7 -3 7 C-2.34 7.33 -1.68 7.66 -1 8 C-1.33 9.98 -1.66 11.96 -2 14 C-2.33 13.01 -2.66 12.02 -3 11 C-4.65 11 -6.3 11 -8 11 C-9.32561852 4.61292897 -9.32561852 4.61292897 -7.9375 2 C-5.08594286 0.52822857 -3.03295907 1.25861001 0 2 C0 1.34 0 0.68 0 0 Z " fill="#C55046" transform="translate(43,42)"/>
<path d="M0 0 C2.97 0.495 2.97 0.495 6 1 C6.67260351 2.76858691 7.33788395 4.53996016 8 6.3125 C8.37125 7.29863281 8.7425 8.28476563 9.125 9.30078125 C10 12 10 12 10 15 C7.47524538 16.26237731 5.68799534 16.09856404 2.875 16.0625 C1.96492188 16.05347656 1.05484375 16.04445313 0.1171875 16.03515625 C-0.93082031 16.01775391 -0.93082031 16.01775391 -2 16 C-3.13314263 11.89517207 -2.78328091 9.24049263 -1.5625 5.1875 C-1.27503906 4.21167969 -0.98757812 3.23585938 -0.69140625 2.23046875 C-0.46324219 1.49441406 -0.23507813 0.75835937 0 0 Z " fill="#FCF7F7" transform="translate(41,81)"/>
<path d="M0 0 C5.5749749 -0.55749749 9.35684682 1.13463069 14 4 C14.66 4.66 15.32 5.32 16 6 C15.64644564 8.26274788 15.02455574 9.95088852 14 12 C10.46319951 12.08038183 7.39220461 12.01766138 4 11 C2.68 10.67 1.36 10.34 0 10 C0 6.7 0 3.4 0 0 Z " fill="#E6A430" transform="translate(46,25)"/>
<path d="M0 0 C1.98 0 3.96 0 6 0 C5.835 1.093125 5.67 2.18625 5.5 3.3125 C4.93281816 6.87525873 4.93281816 6.87525873 5 10 C5.66 10.33 6.32 10.66 7 11 C7.33 10.01 7.66 9.02 8 8 C8.598125 8.45375 9.19625 8.9075 9.8125 9.375 C11.50590652 10.63295913 13.24477086 11.82984724 15 13 C13.02 13.66 11.04 14.32 9 15 C9.2784375 15.928125 9.2784375 15.928125 9.5625 16.875 C10 19 10 19 9 21 C7.35 21 5.7 21 4 21 C2.00214565 16.8794254 1.82164485 13.54805635 2 9 C1.34 9 0.68 9 0 9 C0 6.03 0 3.06 0 0 Z " fill="#CF5745" transform="translate(46,72)"/>
<path d="M0 0 C0.33 2.64 0.66 5.28 1 8 C0.01 8.66 -0.98 9.32 -2 10 C-3.34061543 9.69728039 -4.67405895 9.36162029 -6 9 C-6.66 9.165 -7.32 9.33 -8 9.5 C-10.34648094 10.08662023 -11.72600578 9.73092672 -14 9 C-14.33 7.35 -14.66 5.7 -15 4 C-10.44224642 -0.86160382 -6.22129884 -0.43488691 0 0 Z " fill="#E8A92F" transform="translate(42,27)"/>
<path d="M0 0 C2.31 0 4.62 0 7 0 C7 2.97 7 5.94 7 9 C5.02 9 3.04 9 1 9 C1 9.66 1 10.32 1 11 C2.98 11 4.96 11 7 11 C7 14.3 7 17.6 7 21 C6.67 21 6.34 21 6 21 C6 18.03 6 15.06 6 12 C4.35 12 2.7 12 1 12 C0.67 13.32 0.34 14.64 0 16 C0 10.72 0 5.44 0 0 Z " fill="#DC9497" transform="translate(36,60)"/>
<path d="M0 0 C0 2.97 0 5.94 0 9 C-1.32 9 -2.64 9 -4 9 C-5.4783226 6.04335481 -5.06032783 3.25770263 -5 0 C-6.423125 0.309375 -6.423125 0.309375 -7.875 0.625 C-8.90625 0.74875 -9.9375 0.8725 -11 1 C-11.66 0.34 -12.32 -0.32 -13 -1 C-8.03045858 -2.65651381 -4.73482302 -2.16449052 0 0 Z " fill="#E5A630" transform="translate(47,27)"/>
<path d="M0 0 C0.33 2.64 0.66 5.28 1 8 C0.01 8.66 -0.98 9.32 -2 10 C-5.03061766 7.97958823 -5.72239767 7.24314437 -7 4 C-7 3.01 -7 2.02 -7 1 C-4.53721199 -0.231394 -2.7204945 -0.07159196 0 0 Z " fill="#C9433A" transform="translate(42,27)"/>
<path d="M0 0 C1.98 0 3.96 0 6 0 C6 2.64 6 5.28 6 8 C4.02 8 2.04 8 0 8 C0 5.36 0 2.72 0 0 Z " fill="#C6383E" transform="translate(46,60)"/>
<path d="M0 0 C2.9375 0.375 2.9375 0.375 6 1 C6.33 1.66 6.66 2.32 7 3 C6.06553465 5.03144641 5.06775224 7.03533587 4 9 C2.35 8.67 0.7 8.34 -1 8 C-0.67 5.36 -0.34 2.72 0 0 Z " fill="#C83E3B" transform="translate(47,27)"/>
<path d="M0 0 C1.65 0 3.3 0 5 0 C5 2.64 5 5.28 5 8 C3.35 8 1.7 8 0 8 C0 5.36 0 2.72 0 0 Z " fill="#C6363C" transform="translate(37,60)"/>
<path d="M0 0 C1.65 0 3.3 0 5 0 C5 2.97 5 5.94 5 9 C2.5 7.875 2.5 7.875 0 6 C-0.3125 2.8125 -0.3125 2.8125 0 0 Z " fill="#C7393F" transform="translate(37,72)"/>
<path d="M0 0 C-0.33 1.65 -0.66 3.3 -1 5 C-2.98 5 -4.96 5 -7 5 C-7.66 3.68 -8.32 2.36 -9 1 C-5.64919071 -1.10976881 -3.77897651 -1.0497157 0 0 Z " fill="#EFC25D" transform="translate(54,48)"/>
<path d="M0 0 C1.65 0 3.3 0 5 0 C4.67 2.31 4.34 4.62 4 7 C2.68 7.33 1.36 7.66 0 8 C0 5.36 0 2.72 0 0 Z " fill="#C73A40" transform="translate(47,72)"/>
<path d="M0 0 C0.66 0.66 1.32 1.32 2 2 C1.625 5.125 1.625 5.125 1 8 C0.67 7.01 0.34 6.02 0 5 C-1.65 5 -3.3 5 -5 5 C-5.33 3.35 -5.66 1.7 -6 0 C-3 -1 -3 -1 0 0 Z " fill="#EAB248" transform="translate(40,48)"/>
<path d="M0 0 C1.98 0.495 1.98 0.495 4 1 C3.34 2.98 2.68 4.96 2 7 C1.01 6.67 0.02 6.34 -1 6 C-0.67 4.02 -0.34 2.04 0 0 Z " fill="#C9433A" transform="translate(56,30)"/>
<path d="M0 0 C0.99 0.33 1.98 0.66 3 1 C3.33 2.65 3.66 4.3 4 6 C2.68 6.33 1.36 6.66 0 7 C-0.38133299 5.0085944 -0.71325582 3.00720923 -1 1 C-0.67 0.67 -0.34 0.34 0 0 Z " fill="#C9423A" transform="translate(30,30)"/>
<path d="M0 0 C0.99 0.33 1.98 0.66 3 1 C3 1.66 3 2.32 3 3 C3.66 3.33 4.32 3.66 5 4 C3.02 4.99 1.04 5.98 -1 7 C-0.67 4.69 -0.34 2.38 0 0 Z " fill="#DA7E55" transform="translate(33,80)"/>
<path d="M0 0 C0.99 0.99 1.98 1.98 3 3 C2.67 3.99 2.34 4.98 2 6 C-0.475 5.01 -0.475 5.01 -3 4 C-2.34 3.67 -1.68 3.34 -1 3 C-0.67 2.01 -0.34 1.02 0 0 Z " fill="#D8764D" transform="translate(54,80)"/>
</svg>
